<!-- icon666.com - MILLIONS vector ICONS FREE --><svg version="1.1" id="Capa_1" xmlns="http://www.w3.org/2000/svg" xmlns:xlink="http://www.w3.org/1999/xlink" x="0px" y="0px" viewBox="0 0 512 512" style="enable-background:new 0 0 512 512;" xml:space="preserve"><path style="fill:#FFE577;" d="M503.446,199.818H7.582v126.353c2.909-0.747,5.958-1.144,9.099-1.144 c20.135,0,36.458,16.323,36.458,36.458s-16.323,36.458-36.458,36.458c-3.141,0-6.19-0.397-9.099-1.144v45.855h496.836V200.789 C504.418,200.253,503.983,199.818,503.446,199.818z"></path><path style="fill:#FEDA44;" d="M2.634,199.36L374.289,69.541c0,0,130.129,19.425,130.129,130.276"></path><path style="fill:#FECE00;" d="M63.756,178.011L2.634,199.36l501.784,0.457c0-7.709-0.649-14.959-1.821-21.807H63.756V178.011z"></path><path style="fill:#FFDE56;" d="M461.542,294.711v35.162c0,38.65-31.331,69.981-69.981,69.981H7.582v42.798h496.836V199.818h-42.447 C461.972,199.818,461.542,251.19,461.542,294.711z"></path><g><circle style="fill:#E2C100;" cx="310.503" cy="268.953" r="28.221"></circle><circle style="fill:#E2C100;" cx="385.577" cy="355.217" r="42.204"></circle><circle style="fill:#E2C100;" cx="147.427" cy="308.572" r="38.669"></circle><circle style="fill:#E2C100;" cx="256.003" cy="395.959" r="19.088"></circle><circle style="fill:#E2C100;" cx="67.815" cy="249.239" r="19.713"></circle><ellipse style="fill:#E2C100;" cx="323.636" cy="153.977" rx="29.18" ry="19.289"></ellipse><ellipse style="fill:#E2C100;" cx="220.478" cy="162.055" rx="16.439" ry="11.211"></ellipse><ellipse style="fill:#E2C100;" cx="376.64" cy="101.59" rx="16.528" ry="10.489"></ellipse><ellipse style="fill:#E2C100;" cx="462.55" cy="153.017" rx="14.385" ry="11.211"></ellipse></g><g><polygon style="fill:#FFFFFF;" points="490.272,278.479 475.107,278.479 475.107,228.523 444.516,228.523 444.516,213.359 490.272,213.359 "></polygon><rect x="475.106" y="287.332" style="fill:#FFFFFF;" width="15.164" height="15.995"></rect><rect x="59.371" y="413.094" style="fill:#FFFFFF;" width="82.2" height="15.164"></rect></g><path d="M512,199.818c0-48.194-23.814-87.365-68.866-113.28c-33.392-19.207-66.34-24.288-67.726-24.495l-1.852-0.276L0.133,192.203 l0.011,0.032H0v143.712l9.47-2.433c2.341-0.602,4.768-0.906,7.211-0.906c15.922,0,28.876,12.953,28.876,28.876 c0,15.921-12.953,28.876-28.876,28.876c-2.443,0-4.871-0.305-7.214-0.906L0,387.025v63.209h512V200.789 c0-0.329-0.023-0.652-0.06-0.972H512z M374.939,77.345c7.035,1.293,33.919,6.972,60.634,22.338 c38.233,21.991,58.734,53.103,61.039,92.553H46.024L374.939,77.345z M496.836,435.069H15.164v-29.571 c0.505,0.017,1.011,0.025,1.516,0.025c24.284,0,44.04-19.756,44.04-44.04c0-24.284-19.756-44.04-44.04-44.04 c-0.505,0-1.011,0.009-1.516,0.025V207.4h481.672V435.069z"></path><path d="M310.503,304.756c19.742,0,35.803-16.061,35.803-35.803c0-19.742-16.061-35.803-35.803-35.803 c-19.742,0-35.803,16.061-35.803,35.803C274.701,288.695,290.762,304.756,310.503,304.756z M310.503,248.314 c11.38,0,20.639,9.258,20.639,20.639s-9.258,20.639-20.639,20.639c-11.38,0-20.639-9.258-20.639-20.639 C289.865,257.573,299.123,248.314,310.503,248.314z"></path><path d="M385.581,405.005c27.452,0,49.786-22.334,49.786-49.786c0-27.451-22.334-49.785-49.786-49.785s-49.786,22.334-49.786,49.785 C335.795,382.671,358.129,405.005,385.581,405.005z M385.581,320.597c19.091,0,34.622,15.53,34.622,34.621 s-15.531,34.622-34.622,34.622s-34.622-15.531-34.622-34.622S366.491,320.597,385.581,320.597z"></path><path d="M147.424,354.823c25.502,0,46.249-20.747,46.249-46.249c0-25.502-20.747-46.249-46.249-46.249s-46.249,20.747-46.249,46.249 C101.175,334.076,121.922,354.823,147.424,354.823z M147.424,277.489c17.141,0,31.085,13.945,31.085,31.085 c0,17.14-13.944,31.085-31.085,31.085s-31.085-13.945-31.085-31.085C116.339,291.434,130.283,277.489,147.424,277.489z"></path><path d="M256,422.624c14.705,0,26.67-11.964,26.67-26.669c0-14.706-11.964-26.67-26.67-26.67c-14.706,0-26.669,11.964-26.669,26.67 C229.331,410.661,241.295,422.624,256,422.624z M256,384.451c6.344,0,11.506,5.161,11.506,11.506 c0,6.343-5.161,11.505-11.506,11.505c-6.345,0-11.505-5.161-11.505-11.505C244.495,389.612,249.656,384.451,256,384.451z"></path><path d="M67.816,276.535c15.05,0,27.295-12.244,27.295-27.295s-12.245-27.295-27.295-27.295s-27.295,12.244-27.295,27.295 S52.765,276.535,67.816,276.535z M67.816,237.11c6.688,0,12.13,5.442,12.13,12.13s-5.442,12.13-12.13,12.13 s-12.13-5.442-12.13-12.13S61.126,237.11,67.816,237.11z"></path><path d="M323.637,127.097c-20.614,0-36.762,11.805-36.762,26.875s16.148,26.876,36.762,26.876s36.762-11.806,36.762-26.876 S344.251,127.097,323.637,127.097z M323.637,165.684c-12.362,0-21.598-6.183-21.598-11.712c0-5.528,9.237-11.711,21.598-11.711 c12.361,0,21.598,6.183,21.598,11.711C345.236,159.501,335.999,165.684,323.637,165.684z"></path><path d="M220.473,143.267c-13.47,0-24.021,8.253-24.021,18.791s10.551,18.791,24.021,18.791s24.022-8.253,24.022-18.791 S233.943,143.267,220.473,143.267z M220.473,165.684c-5.619,0-8.857-2.752-8.857-3.626s3.239-3.626,8.857-3.626 c5.619,0,8.858,2.752,8.858,3.626S226.092,165.684,220.473,165.684z"></path><path d="M376.636,83.519c-13.519,0-24.11,7.938-24.11,18.071s10.591,18.071,24.11,18.071s24.11-7.938,24.11-18.071 S390.155,83.519,376.636,83.519z M376.636,104.496c-4.981,0-8.104-1.912-8.846-2.906c0.741-0.995,3.864-2.906,8.846-2.906 s8.104,1.912,8.846,2.906C384.741,102.585,381.618,104.496,376.636,104.496z"></path><path d="M462.551,134.226c-12.112,0-21.967,8.429-21.967,18.791c0,10.36,9.855,18.79,21.967,18.79 c12.112,0,21.967-8.429,21.967-18.79C484.518,142.656,474.664,134.226,462.551,134.226z M462.551,156.642 c-4.089,0-6.803-2.182-6.803-3.625s2.713-3.626,6.803-3.626c4.089,0,6.803,2.183,6.803,3.626S466.641,156.642,462.551,156.642z"></path><rect x="154.918" y="413.094" style="fill:#FFFFFF;" width="43.256" height="15.164"></rect></svg>