<!-- icon666.com - MILLIONS vector ICONS FREE --><svg viewBox="0 0 256 256" xmlns="http://www.w3.org/2000/svg"><g id="Layer_52"><g><g><circle cx="180.075" cy="195" fill="#b2e26d" r="58.5"></circle></g><g><path d="m198.832 230.5h-34.763c-7.765 0-14.118-6.353-14.118-14.118v-4.263c0-7.765 6.353-14.118 14.118-14.118h34.763c7.765 0 14.118 6.353 14.118 14.118v4.263c0 7.765-6.353 14.118-14.118 14.118z" fill="#f98fa6"></path></g><g><g><path d="m164.069 198h34.763c3.38 0 6.491 1.205 8.928 3.205v-18.847c0-12.572-10.286-22.858-22.858-22.858h-6.902c-12.572 0-22.859 10.286-22.859 22.858v18.847c2.437-2 5.548-3.205 8.928-3.205z" fill="#edf4fc"></path></g></g><g><g><path d="m198.832 230.5h-34.763c-2.194 0-4.267-.522-6.124-1.425 4.82 7.963 13.568 13.316 23.506 13.316 9.938 0 18.685-5.352 23.506-13.316-1.858.903-3.931 1.425-6.125 1.425z" fill="#edf4fc"></path></g></g><g><circle cx="164.388" cy="189.5" fill="#818182" r="5.25"></circle></g><g><circle cx="198.513" cy="189.5" fill="#818182" r="5.25"></circle></g><g><path d="m226.814 159.822c-1.704-2.261-3.569-4.393-5.577-6.382-5.087 7.206-16.961 9.096-24.228 9.56 2.9 1.825 5.365 4.281 7.201 7.173 2.7.821 6.983 1.894 11.524 2.138 6.8-3.415 9.933-7.946 11.08-12.489z" fill="#fcdd86"></path></g><g><path d="m135.614 157.002c.474 5.436 3.341 11.185 11.552 15.309 4.542-.244 8.824-1.317 11.524-2.138 1.836-2.893 4.301-5.349 7.201-7.173-7.798-.497-20.902-2.638-25.229-11.228-1.791 1.634-3.471 3.387-5.048 5.23z" fill="#fcdd86"></path></g><g><path d="m222.711 171.894c-6.733 1.341-14.423-.48-18.501-1.72 2.243 3.533 3.55 7.713 3.55 12.185v4.089c12.62.532 17.096-5.552 18.667-10.388.763-2.353-1.291-4.649-3.716-4.166z" fill="#edf4fc"></path></g><g><path d="m155.141 186.448v-4.089c0-4.472 1.307-8.652 3.55-12.185-4.079 1.24-11.769 3.062-18.501 1.72-2.425-.483-4.479 1.813-3.716 4.166 1.57 4.835 6.047 10.92 18.667 10.388z" fill="#edf4fc"></path></g><g><path d="m198.832 233h-34.763c-9.163 0-16.618-7.455-16.618-16.618v-4.264c0-9.163 7.455-16.618 16.618-16.618h34.763c9.164 0 16.619 7.455 16.619 16.618v4.264c-.001 9.163-7.456 16.618-16.619 16.618zm-34.764-32.5c-6.406 0-11.618 5.212-11.618 11.618v4.264c0 6.406 5.212 11.618 11.618 11.618h34.763c6.407 0 11.619-5.212 11.619-11.618v-4.264c0-6.406-5.212-11.618-11.619-11.618z"></path></g><g><g><path d="m207.76 203.47c-1.381 0-2.5-1.119-2.5-2.5v-18.611c0-11.226-9.133-20.358-20.359-20.358h-6.902c-11.226 0-20.358 9.133-20.358 20.358v18.523c0 1.381-1.119 2.5-2.5 2.5s-2.5-1.119-2.5-2.5v-18.523c0-13.982 11.376-25.358 25.358-25.358h6.902c13.983 0 25.359 11.376 25.359 25.358v18.611c0 1.381-1.119 2.5-2.5 2.5z"></path></g></g><g><g><path d="m181.45 244.891c-10.395 0-19.906-5.305-25.442-14.19-.73-1.172-.372-2.714.8-3.444 1.171-.73 2.713-.372 3.444.8 4.617 7.411 12.542 11.835 21.198 11.835 8.608 0 16.509-4.387 21.135-11.734.735-1.168 2.279-1.521 3.448-.783 1.168.735 1.519 2.278.784 3.447-5.547 8.809-15.03 14.069-25.367 14.069z"></path></g></g><g><path d="m164.388 197.25c-4.273 0-7.75-3.477-7.75-7.75s3.477-7.75 7.75-7.75 7.75 3.477 7.75 7.75-3.477 7.75-7.75 7.75zm0-10.5c-1.517 0-2.75 1.233-2.75 2.75s1.233 2.75 2.75 2.75 2.75-1.233 2.75-2.75-1.234-2.75-2.75-2.75z"></path></g><g><path d="m198.513 197.25c-4.273 0-7.75-3.477-7.75-7.75s3.477-7.75 7.75-7.75 7.75 3.477 7.75 7.75-3.477 7.75-7.75 7.75zm0-10.5c-1.517 0-2.75 1.233-2.75 2.75s1.233 2.75 2.75 2.75 2.75-1.233 2.75-2.75-1.234-2.75-2.75-2.75z"></path></g><g><path d="m169.449 216.001c-.309 0-.623-.058-.928-.18l-5-2c-1.282-.513-1.905-1.968-1.393-3.25s1.966-1.907 3.25-1.393l5 2c1.282.513 1.905 1.968 1.393 3.25-.391.978-1.33 1.573-2.322 1.573z"></path></g><g><path d="m193.451 216.001c-.992 0-1.931-.595-2.322-1.572-.513-1.282.111-2.737 1.393-3.25l5-2c1.283-.515 2.737.11 3.25 1.393.513 1.282-.111 2.737-1.393 3.25l-5 2c-.305.121-.619.179-.928.179z"></path></g><g><path d="m216.072 174.641c-.905 0-1.779-.493-2.223-1.354-.634-1.227-.153-2.734 1.074-3.368 4.954-2.561 8.09-5.982 9.321-10.173.389-1.324 1.778-2.085 3.103-1.693 1.325.389 2.083 1.778 1.694 3.104-1.63 5.551-5.608 9.993-11.823 13.204-.367.189-.76.28-1.146.28z"></path></g><g><path d="m197.349 165.478c-1.303 0-2.401-1.01-2.492-2.329-.095-1.377.945-2.57 2.323-2.665 6.101-.419 17.035-2.027 21.725-8.093.843-1.092 2.413-1.295 3.507-.448 1.092.845 1.293 2.414.448 3.507-5.59 7.229-16.864 9.44-25.337 10.022-.059.004-.117.006-.174.006z"></path></g><g><path d="m165.613 165.481c-.057 0-.114-.002-.171-.006-9.416-.638-21.678-3.213-26.624-11.856-.686-1.198-.27-2.726.928-3.411s2.725-.271 3.412.929c4.049 7.076 15.912 8.896 22.622 9.351 1.377.093 2.418 1.285 2.325 2.663-.089 1.32-1.188 2.33-2.492 2.33z"></path></g><g><path d="m146.796 174.624c-.388 0-.781-.091-1.148-.281-7.431-3.851-11.75-9.65-12.491-16.771-.143-1.374.855-2.603 2.229-2.745 1.37-.152 2.602.854 2.745 2.228.565 5.443 3.869 9.766 9.818 12.849 1.226.636 1.705 2.145 1.069 3.37-.445.858-1.318 1.35-2.222 1.35z"></path></g><g><path d="m209.272 188.979c-.305 0-.613-.004-.927-.012-1.38-.034-2.472-1.181-2.437-2.561.035-1.381 1.198-2.479 2.561-2.438 8.399.204 13.641-2.713 15.58-8.684.106-.327-.021-.565-.147-.707-.105-.118-.337-.311-.701-.233-6.755 1.345-14.203-.151-19.261-1.644-1.324-.391-2.081-1.78-1.69-3.104.391-1.325 1.781-2.084 3.105-1.69 3.699 1.091 10.809 2.744 16.869 1.534 2.021-.4 4.046.275 5.415 1.816 1.365 1.535 1.801 3.619 1.166 5.573-1.489 4.583-6 12.15-19.533 12.15z"></path></g><g><path d="m153.629 188.98c-13.541 0-18.048-7.574-19.534-12.149-.635-1.955-.198-4.038 1.167-5.574 1.369-1.539 3.394-2.217 5.416-1.815 6.077 1.212 13.207-.45 16.916-1.55 1.325-.389 2.715.364 3.107 1.688s-.363 2.715-1.687 3.107c-5.071 1.501-12.539 3.007-19.313 1.659-.369-.078-.597.115-.702.233-.126.143-.254.38-.148.707 1.929 5.938 7.13 8.865 15.45 8.688 1.395-.072 2.523 1.066 2.552 2.447.029 1.38-1.067 2.522-2.447 2.551-.261.006-.521.008-.777.008z"></path></g><g><path d="m121.575 195c0-23.727 14.133-44.138 34.433-53.317v-34.508c0-8.932-3.508-17.507-9.768-23.879l-12.734-12.959c-6.26-6.371-9.768-14.946-9.768-23.878v-5.93c0-.959.604-1.784 1.484-2.165 3.822-1.654 6.39-5.652 5.873-10.187-.574-5.031-5.085-8.691-10.148-8.691-10.069 0-25.604 0-35.673 0-5.063 0-9.574 3.66-10.148 8.691-.518 4.535 2.051 8.533 5.873 10.187.88.381 1.484 1.206 1.484 2.165v5.93c0 8.932-3.508 17.507-9.769 23.879l-12.737 12.959c-6.261 6.371-9.769 14.947-9.769 23.879v132.908c0 7.41 6.007 13.416 13.416 13.416h78.966c4.747 0 8.911-2.471 11.295-6.192-19.155-9.61-32.31-29.417-32.31-52.308z" fill="#9be5f9"></path></g><g><path d="m121.575 195c0-23.726 14.133-44.138 34.433-53.317v-34.508c0-6.939-2.14-13.648-6.02-19.291-7.393 1.864-9.45 6.741-20.145 6.741-13.215 0-13.215-7.462-26.43-7.462-13.214 0-13.214 7.462-26.427 7.462-10.939 0-12.845-5.101-20.668-6.861-3.934 5.667-6.108 12.421-6.108 19.411v132.908c0 7.41 6.007 13.416 13.416 13.416h78.966c4.747 0 8.911-2.471 11.295-6.192-19.157-9.609-32.312-29.416-32.312-52.307z" fill="#dae6f1"></path></g><g><path d="m142.121 239.499h-80.071c-5.004 0-9.379-2.643-11.842-6.6v7.185c0 7.41 6.007 13.416 13.416 13.416h78.966c4.747 0 8.911-2.471 11.295-6.192-4.242-2.129-8.188-4.756-11.764-7.809z" fill="#c7d7e5"></path></g><g><path d="m123.961 41.596h-18.787c-1.381 0-2.5-1.119-2.5-2.5s1.119-2.5 2.5-2.5h18.787c1.381 0 2.5 1.119 2.5 2.5s-1.119 2.5-2.5 2.5z"></path></g><g><path d="m142.591 256h-78.966c-8.776 0-15.916-7.14-15.916-15.916v-132.908c0-9.647 3.724-18.75 10.485-25.631l12.734-12.96c5.837-5.94 9.052-13.798 9.052-22.126v-5.808c-5.023-2.202-7.962-7.316-7.341-12.758.71-6.219 6.141-10.908 12.632-10.908h35.673c6.492 0 11.923 4.689 12.632 10.908.622 5.45-2.327 10.572-7.34 12.754v5.812c0 8.328 3.214 16.186 9.051 22.126l12.734 12.96c6.762 6.881 10.485 15.983 10.485 25.631v34.168c0 1.381-1.119 2.5-2.5 2.5s-2.5-1.119-2.5-2.5v-34.168c0-8.329-3.215-16.187-9.052-22.127l-12.734-12.96c-6.761-6.881-10.485-15.983-10.485-25.63v-5.931c0-1.923 1.174-3.673 2.991-4.459 2.993-1.296 4.753-4.354 4.382-7.609-.414-3.631-3.78-6.475-7.664-6.475h-35.673c-3.883 0-7.25 2.844-7.665 6.475-.372 3.256 1.39 6.313 4.382 7.609 1.817.786 2.991 2.536 2.991 4.459v5.931c0 9.647-3.724 18.749-10.485 25.63l-12.734 12.96c-5.837 5.94-9.052 13.798-9.052 22.127v132.908c0 6.02 4.897 10.916 10.916 10.916h78.966c3.598 0 6.965-1.78 9.006-4.763.78-1.139 2.334-1.43 3.475-.651 1.139.78 1.431 2.336.651 3.476-2.972 4.344-7.881 6.938-13.131 6.938z"></path></g><g><path d="m129.842 97.126c-7.265 0-11.079-2.153-14.444-4.054-3.239-1.829-6.036-3.408-11.986-3.408s-8.746 1.579-11.984 3.408c-3.365 1.899-7.179 4.054-14.443 4.054s-11.086-2.149-14.458-4.046c-1.967-1.105-3.825-2.15-6.349-2.779-1.34-.334-2.156-1.69-1.822-3.03.333-1.34 1.691-2.158 3.03-1.821 3.179.792 5.422 2.053 7.592 3.272 3.248 1.827 6.053 3.404 12.008 3.404 5.95 0 8.746-1.579 11.984-3.408 3.365-1.899 7.179-4.054 14.443-4.054 7.265 0 11.079 2.153 14.444 4.054 3.239 1.829 6.036 3.408 11.986 3.408 5.955 0 8.758-1.578 12.004-3.405 2.03-1.143 4.13-2.325 7.012-3.123 1.328-.368 2.708.411 3.077 1.742.369 1.33-.411 2.708-1.742 3.076-2.295.636-4.043 1.62-5.894 2.662-3.372 1.898-7.192 4.048-14.458 4.048z"></path></g><g><path d="m141.771 241.998h-79.721c-5.563 0-10.709-2.791-13.766-7.467-.755-1.156-.431-2.705.725-3.461 1.155-.755 2.705-.431 3.46.725 2.129 3.258 5.711 5.203 9.58 5.203h79.721c1.381 0 2.5 1.119 2.5 2.5s-1.118 2.5-2.499 2.5z"></path></g><g><path d="m180.075 256c-33.636 0-61-27.364-61-61s27.364-61 61-61 61 27.364 61 61-27.365 61-61 61zm0-117c-30.878 0-56 25.121-56 56s25.122 56 56 56 56-25.121 56-56-25.122-56-56-56z"></path></g><g><g><g><path d="m151.267 6.21c-3.157-.561-5.613-3.017-6.245-6.104 0-.14-.281-.14-.281 0-.632 3.087-3.087 5.543-6.245 6.104-.14 0-.14.21 0 .281 3.157.561 5.613 3.017 6.245 6.104 0 .14.281.14.281 0 .632-3.087 3.087-5.543 6.245-6.104.141-.071.141-.281 0-.281z" fill="#87d147"></path></g></g></g><g><g><g><path d="m194.258 118.589h2.3v2.3c0 1.7 1.4 3.2 3.2 3.2s3.2-1.4 3.2-3.2v-2.3h2.3c1.7 0 3.2-1.4 3.2-3.2s-1.4-3.2-3.2-3.2h-2.3v-2.3c0-1.7-1.4-3.2-3.2-3.2s-3.2 1.4-3.2 3.2v2.3h-2.3c-1.7 0-3.2 1.4-3.2 3.2s1.4 3.2 3.2 3.2z" fill="#70d6f9"></path></g></g></g><g><g><g><circle cx="33.658" cy="198.4" fill="#fc657e" r="3.4"></circle></g></g></g><g><g><g><circle cx="176.658" cy="91.4" fill="#f5c84c" r="3.4"></circle></g></g></g><g><g><g><path d="m15.075 170.181c4.5-.8 8-4.3 8.9-8.7 0-.2.4-.2.4 0 .9 4.4 4.4 7.9 8.9 8.7.2 0 .2.3 0 .4-4.5.8-8 4.3-8.9 8.7 0 .2-.4.2-.4 0-.9-4.4-4.4-7.9-8.9-8.7-.2-.1-.2-.4 0-.4z" fill="#f5c84c"></path></g></g></g></g></g></svg>