<!-- icon666.com - MILLIONS vector ICONS FREE --><svg id="Capa_1" enable-background="new 0 0 512 512" viewBox="0 0 512 512" xmlns="http://www.w3.org/2000/svg"><path d="m247.987 194.242c-10.71 82.107 51.763 169.568 26.774 223.116s-77.942 51.722-77.942 51.722-52.953 1.826-77.942-51.722 37.483-141.009 26.774-223.116" fill="#f0ecef"></path><path d="m196.474 469.086c-4.584.037-53.783-.712-77.597-51.728-24.992-53.546 37.484-141.014 26.773-223.122h31.868c4.036 82.108-19.532 169.577-10.108 223.122 8.702 49.4 26.371 51.673 29.064 51.728z" fill="#d5ced5"></path><path d="m386.138 167.727c0-67-84.761-140.376-189.319-140.376s-189.319 73.376-189.319 140.376 84.761 45.016 189.319 45.016 189.319 21.984 189.319-45.016z" fill="#d57e4b"></path><path d="m196.818 27.352c-44.423 0-80.437 73.369-80.437 140.375 0 30.855 7.634 42.835 20.217 46.788-75.032 3.47-129.098 6.721-129.098-46.788 0-67.006 84.756-140.375 189.318-140.375z" fill="#a95e2c"></path><path d="m401.417 279.57c-7.991 61.265 38.624 126.525 19.978 166.481s-58.157 38.593-58.157 38.593-39.511 1.363-58.157-38.593 27.969-105.216 19.978-166.481" fill="#f0ecef"></path><path d="m362.98 484.649c-3.42.027-40.131-.531-57.9-38.598-18.648-39.954 27.969-105.219 19.977-166.485h23.779c3.012 61.266-14.574 126.532-7.542 166.485 6.492 36.861 19.676 38.557 21.686 38.598z" fill="#d5ced5"></path><path d="m504.5 259.786c0-49.993-63.245-104.743-141.263-104.743s-141.263 54.75-141.263 104.743 63.245 33.589 141.263 33.589 141.263 16.404 141.263-33.589z" fill="#d57e4b"></path><path d="m363.237 155.044c-33.147 0-60.019 54.746-60.019 104.742 0 23.022 5.696 31.962 15.085 34.912-55.986 2.589-96.328 5.015-96.328-34.912 0-49.997 63.242-104.742 141.262-104.742z" fill="#a95e2c"></path><path d="m481.93 195.388c-2.902-2.954-7.65-2.996-10.606-.093-2.954 2.903-2.996 7.652-.093 10.606 16.618 16.911 25.77 36.047 25.77 53.883 0 8.582-2.135 14.792-6.526 18.983-12.229 11.673-43.492 10.22-79.692 8.539-15.151-.704-30.818-1.432-47.542-1.432-16.727 0-32.395.728-47.548 1.432-36.203 1.682-67.468 3.135-79.696-8.539-4.391-4.192-6.526-10.401-6.526-18.983 0-22.033 14.389-46.408 38.49-65.202 26.493-20.66 60.331-32.038 95.28-32.038 30.941 0 61.809 9.233 86.915 25.998 3.445 2.3 8.102 1.373 10.402-2.072s1.373-8.102-2.072-10.402c-19.746-13.185-42.719-22.122-66.624-26.127-6.257-31.785-28.792-63.57-62.612-87.981-37.623-27.155-84.654-42.11-132.431-42.11-50.728 0-99.907 16.567-138.48 46.651-37.076 28.914-58.339 65.808-58.339 101.221 0 16.557 4.638 29.033 14.179 38.141 14.959 14.281 39.968 17.828 71.845 17.828 14.622 0 30.69-.747 47.893-1.546 1.753-.082 3.519-.163 5.283-.244-1.333 29.428-9.852 59.063-18.132 87.8-10.476 36.358-20.371 70.7-13.167 99.042.863 3.395 3.915 5.654 7.264 5.654.611 0 1.233-.076 1.853-.233 4.015-1.021 6.442-5.103 5.421-9.117-6.203-24.401 3.145-56.845 13.042-91.194 8.651-30.021 17.563-60.994 18.77-92.613 13.756-.563 27.886-.996 42.567-.996 10.127 0 20.004.218 28.479.482-7.055 12.727-10.826 26.015-10.826 39.058 0 12.721 3.757 22.759 11.168 29.833 7.09 6.768 16.968 10.417 29.091 12.24 1.151 4.064 2.313 8.099 3.447 12.036 11.11 38.568 21.604 74.998 9.798 100.298-22.501 48.188-68.952 47.457-70.897 47.397-.172-.006-.344-.006-.516 0-.375.016-37.788.91-62.034-32.297-2.442-3.345-7.135-4.078-10.48-1.634-3.345 2.442-4.077 7.135-1.634 10.48 26.875 36.807 66.779 38.456 73.688 38.456.313 0 .558-.003.731-.007 2.131.044 15.779.006 32.259-6.276 16.224-6.185 38.498-19.84 52.475-49.774 14.184-30.396 2.934-69.45-8.977-110.795-.614-2.132-1.237-4.296-1.86-6.472 13.462.517 28.84-.196 45.659-.978.612-.028 1.23-.057 1.843-.085-1.281 21.06-7.399 42.337-13.349 62.989-8.994 31.215-17.489 60.698-6.602 84.03 19.248 41.237 58.2 42.926 64.425 42.926.217 0 .395-.002.53-.005 4.005.083 45.037-.246 64.956-42.922 10.887-23.331 2.392-52.814-6.602-84.029-5.951-20.652-12.068-41.929-13.349-62.989.614.029 1.232.057 1.845.085 12.845.597 24.845 1.155 35.797 1.154 24.24 0 43.328-2.734 54.948-13.827 7.411-7.074 11.168-17.112 11.168-29.833.001-21.793-10.678-44.663-30.069-64.397zm-285.113 9.857c-22.355 0-43.321.974-63.597 1.916-49.101 2.281-91.505 4.251-108.684-12.147-6.416-6.127-9.536-15.054-9.536-27.292 0-30.307 19.649-63.725 52.562-89.394 35.95-28.038 81.854-43.479 129.255-43.479 44.651 0 88.564 13.947 123.652 39.273 29.007 20.937 48.802 47.422 55.585 73.905-4.262-.319-8.538-.482-12.814-.482-38.275 0-75.389 12.504-104.504 35.209-9.222 7.192-17.145 15.046-23.643 23.303-10.145-.385-23.944-.812-38.276-.812zm210.36 164.103c8.193 28.437 15.932 55.296 7.423 73.533-16.223 34.758-49.719 34.306-51.104 34.268-.173-.006-.345-.006-.517 0-.351.015-34.745.783-51.104-34.267-8.51-18.237-.771-45.097 7.422-73.534 6.327-21.959 12.83-44.598 13.99-67.802 9.696-.385 19.649-.67 29.953-.67 10.302 0 20.252.285 29.946.67 1.161 23.203 7.664 45.843 13.991 67.802z"></path></svg>