<!-- icon666.com - MILLIONS vector ICONS FREE --><svg id="svg27761" viewBox="0 0 16.933333 16.933334" xmlns="http://www.w3.org/2000/svg" xmlns:svg="http://www.w3.org/2000/svg"><g id="layer1" transform="translate(0 -280.067)"><path id="circle12633" d="m16.139595 288.5333a7.6729167 7.6729167 0 0 1 -7.6729197 7.67291 7.6729167 7.6729167 0 0 1 -7.67292-7.67291 7.6729167 7.6729167 0 0 1 7.67292-7.67292 7.6729167 7.6729167 0 0 1 7.6729197 7.67292z" fill="#f7f065"></path><g fill="#fcb860"><path id="path12635" d="m9.7032353 282.16409c-.33034-.14225-.74117-.24575-1.23729-.24571-.91652 0-1.53339.35082-1.8981902.64902l1.8984002 4.58316 1.8982697-4.58283c-.16745-.1368-.3811297-.28317-.6611897-.40364z"></path><path id="path12637" d="m12.095155 283.15485c-.28304-.11291-.53787-.16044-.75296-.18212l-1.8980697 4.58235 4.5824897-1.89812c-.0471-.46881-.23482-1.15294-.88283-1.80095-.35079-.35079-.71452-.56803-1.04863-.70116z"></path><path id="path12639" d="m5.5903753 282.97304c-.46897.0472-1.15354.23503-1.80164.88311-.64789.64792-.8357201 1.33181-.8828799 1.80063l4.5823599 1.89807z"></path><path id="path12641" d="m14.430895 286.63491-4.5817997 1.89785 4.5823497 1.89807c.29817-.36485.6494-.98102.64942-1.89733 0-.91681-.35169-1.53364-.64997-1.89859z"></path><path id="path12643" d="m2.5008453 286.63454c-.29822.36481-.64912.98141-.64914 1.89801.00001.91654.3513 1.5334.6495 1.8984l4.58248-1.89813z"></path><path id="path12645" d="m9.4436053 289.51033 1.8981297 4.58248c.46897-.0472 1.15381-.23462 1.8021-.88291.64814-.64817.83554-1.33247.8826-1.8013z"></path><path id="path12647" d="m7.4886453 289.51048-4.5831601 1.89841c.0471.46882.2352201 1.15308.8833101 1.80115.6481498.64813 1.3326201.83609 1.80158.88328z"></path><path id="path12649" d="m8.4662153 289.91598-1.89808 4.58236c.36501.2982.98208.64933 1.89849.64933.91642 0 1.53289-.35103 1.8977097-.64921z"></path></g><path id="path3596-9" d="m9.9053363 281.00043c3.1581217 1.04762 5.4399787 4.02407 5.4399787 7.53184 0 3.50858-2.282799 6.4859-5.4420447 7.53288a7.672917 7.672917 0 0 0 6.2363107-7.53185 7.672917 7.672917 0 0 0 -6.2342447-7.53287z" fill="#fcdf54" font-variant-ligatures="normal" font-variant-position="normal" font-variant-caps="normal" font-variant-numeric="normal" font-variant-alternates="normal" font-feature-settings="normal" text-indent="0" text-align="start" text-decoration-line="none" text-decoration-style="solid" text-decoration-color="#000000" text-transform="none" text-orientation="mixed" white-space="normal" shape-padding="0" isolation="auto" mix-blend-mode="normal" solid-color="#000000" solid-opacity="1" vector-effect="none"></path><path id="path3816-3" d="m11.341941 282.97292-.01085.0263c1.142499.54298 1.88383 1.65498 2.087729 2.90939l.607713-.25167c-.0471-.46881-.234622-1.15291-.882634-1.80092-.35079-.35079-.714404-.56812-1.048515-.70125-.283038-.11291-.53835-.16022-.75344-.1819zm3.088701 3.66179-.574643.23823c.232852.40248.431916.95171.432014 1.65985v.00053h-.000529c-.0001.70747-.19844 1.25682-.430982 1.65933l.575159.23823c.29817-.36486.649036-.98125.649057-1.89756 0-.91681-.351811-1.53364-.650089-1.89859zm-1.011825 4.52221c-.204038 1.25435-.945657 2.36603-2.088245 2.90886l.01138.0269c.468969-.0472 1.153666-.23435 1.801956-.88264.648142-.64817.835575-1.33261.882634-1.80144z" fill="#fcaa52" font-variant-ligatures="normal" font-variant-position="normal" font-variant-caps="normal" font-variant-numeric="normal" font-variant-alternates="normal" font-feature-settings="normal" text-indent="0" text-align="start" text-decoration-line="none" text-decoration-style="solid" text-decoration-color="#000000" text-transform="none" text-orientation="mixed" white-space="normal" shape-padding="0" isolation="auto" mix-blend-mode="normal" solid-color="#000000" solid-opacity="1" vector-effect="none"></path><path id="circle8582-8" d="m8.4666653 280.59477c-4.3806302 0-7.9375 3.55686-7.9375 7.93749 0 4.38064 3.5568698 7.9375 7.9375 7.9375 4.3806197 0 7.9374997-3.55686 7.9374997-7.9375 0-4.38063-3.55688-7.93749-7.9374997-7.93749zm0 .52968c4.0946397 0 7.4078197 3.31317 7.4078197 7.40781 0 4.09465-3.31318 7.40834-7.4078197 7.40834-4.09465 0-7.40833-3.31369-7.40833-7.40834 0-4.09464 3.31368-7.40781 7.40833-7.40781zm-.000529.52917c-.98375.00013-1.66686.3827-2.0660204.70899-.0903.0742-.1215898.19863-.0765.30645l1.8985894 4.58215c.0887.21413.39584.22374.48834.00053l1.8985897-4.58215c.0451-.10782.0138-.23224-.0765-.30644-.39914-.32632-1.0822597-.70888-2.0660097-.70902v-.00053zm0 .52968c.96848.00025 1.5756097.47077 1.5756097.47077l-1.5750807 3.80545-1.57561-3.80597s.60693-.47034 1.5751-.47025zm-2.9021511.52555c-.5129699.0515-1.2664199.26411-1.96215.95963v.00053c-.6955099.69573-.9081299 1.44918-.9596299 1.96215-.0114.11633.0547.22649.16278.27079l4.58267 1.89756c.22324.0925.43338-.13106.34468-.3452l-1.8975601-4.58267c-.0444-.1081-.1544699-.17418-.27079-.16278zm5.8048198 0c-.11632-.0114-.22645.0547-.27079.16278l-1.8975597 4.58267c-.0887.21415.12143.43815.34468.34571l4.5826697-1.89756c.10812-.0444.17416-.15446.16278-.27078-.0515-.51298-.26411-1.26695-.95963-1.96293-.69571-.69578-1.44918-.90836-1.96215-.95989zm-5.9464097.55293 1.57716 3.80546-3.8044201-1.57717s.0962-.76245.7808402-1.44745c.6845398-.68466 1.4464199-.78084 1.4464199-.78084zm6.0874797 0s.7619.0962 1.44643.78084c.68464.685.78135 1.44745.78135 1.44745l-3.8049397 1.57717zm2.81999 3.1285-4.5821497 1.89807c-.21768.0903-.21768.3986 0 .48886l1.5280697.63304c.32858.14157.53498-.35653.20257-.48886l-.93793-.38861 3.80287-1.57251s.47284.61986.47284 1.57303-.47129 1.57561-.47129 1.57561l-.48576-.20154c-.33176-.14915-.5423.36024-.20205.48886l.67334.27906c.1078.0446.23208.0133.30593-.077.32611-.39904.70898-1.08107.709-2.06499 0-.98447-.38328-1.66688-.70952-2.06602-.10979-.12274-.20756-.10336-.30592-.077zm-12.0344097.0765c-.32629.39916-.70886 1.08226-.709 2.06602v.00053h.0005291c.00014.98375.38269 1.66688.70899 2.06602.0742.0903.19867.12159.30645.0765l4.5821509-1.89859c.22323-.0925.21362-.39965-.000529-.48835l-4.582151-1.89859c-.12996-.0541-.22878-.001-.30644.0765zm.29094.49092 3.8059699 1.57562-3.8054599 1.57509s-.47051-.60714-.47077-1.57561c-.00008-.96817.47026-1.5751.47026-1.5751zm4.80074 2.30942-4.5826701 1.89756c-.1081001.0444-.1741799.15447-.1627799.27079.0515.51297.26411 1.26643.95963 1.96215l.0005292.00053.0005291-.00053c.6957201.69552 1.4491902.90813 1.9621601.95963.1163201.0114.2264799-.0546.2707799-.16278l1.8975617-4.58267c.0926-.2237-.12453-.43626-.34572-.34468zm1.81229.3452 1.8975597 4.58215c.0444.10815.15446.17417.27078.16278.51298-.0515 1.26644-.26411 1.96216-.95963l.000529.00053.000529-.00053c.69552-.69571.90811-1.44917.95963-1.96215.0114-.11631-.0547-.22644-.16279-.27079l-4.5826597-1.89756c-.24201-.10021-.43022.14114-.34572.3452zm3.1341697.23668.26562.10955c.31322.12898.53096-.34903.20102-.48834l-.26355-.11162c-.31424-.13309-.52887.35604-.20309.49041zm-4.1113697-.0336-1.8985901 4.58215c-.0451.10782-.013801.23224.0765.30644.3991601.32629 1.0822701.70886 2.0660201.709h.000529v-.00053c.98375-.00014 1.6668797-.3827 2.0660197-.709.0903-.0742.12159-.19862.0765-.30644l-1.8985887-4.58215c-.0994-.23992-.40646-.19712-.48835.00053zm-1.22215.18449-1.5771601 3.80442c0-.00001-.7619399-.0962-1.4469398-.78084-.6846602-.68454-.7813501-1.44694-.7813501-1.44694zm2.93212 0 3.8054597 1.57716s-.0967.76189-.78135 1.44642c-.685.68464-1.44694.78083-1.44694.78084zm-1.46553.60719 1.5750997 3.80546s-.6071397.47051-1.5756097.47077c-.96817.00008-1.5751-.47026-1.5751-.47026z" font-variant-ligatures="normal" font-variant-position="normal" font-variant-caps="normal" font-variant-numeric="normal" font-variant-alternates="normal" font-feature-settings="normal" text-indent="0" text-align="start" text-decoration-line="none" text-decoration-style="solid" text-decoration-color="#000000" text-transform="none" text-orientation="mixed" white-space="normal" shape-padding="0" isolation="auto" mix-blend-mode="normal" solid-color="#000000" solid-opacity="1" vector-effect="none"></path></g></svg>