<!-- icon666.com - MILLIONS vector ICONS FREE --><svg viewBox="0 0 64 64" xmlns="http://www.w3.org/2000/svg"><g id="_12-jam" data-name="12-jam"><path d="m53.919 20.45a3.886 3.886 0 0 1 .3 5.02 4.325 4.325 0 0 1 -3.219 1.53 5.372 5.372 0 0 1 -5-5c0 2.76-1.04 5-3.85 5a5.109 5.109 0 0 1 -5.15-4.98v-.02l.02-.06a1.016 1.016 0 0 0 1.36-1.09l-.38-2.85.53.35a1.017 1.017 0 0 0 1.17-1.63l-1.44-2.3a2.02 2.02 0 0 0 1.67-1.44l.07.02h5.509a8.435 8.435 0 0 0 1.28 1.72z" fill="#c67d1e"></path><path d="m51 33v26a4 4 0 0 1 -4 4h-30a4 4 0 0 1 -4-4v-26z" fill="#b3173d"></path><path d="m51 27v6h-38v-6a5.372 5.372 0 0 0 5-5c0 2.76 1.2 5 4 5a4.976 4.976 0 0 0 5-5 5 5 0 0 0 10 .02 5.109 5.109 0 0 0 5.149 4.98c2.81 0 3.85-2.24 3.85-5a5.372 5.372 0 0 0 5.001 5z" fill="#f7f3eb"></path><path d="m46 4.56a3.7 3.7 0 0 1 -.11.87l-.89 3.57h-5l-.07.02a2.023 2.023 0 0 0 -2.42-1.4l-3.51 1.38h-4l-3.51-1.38a2.023 2.023 0 0 0 -2.42 1.4l-.07-.02h-5l-.89-3.57a3.7 3.7 0 0 1 -.11-.87 3.551 3.551 0 0 1 3.561-3.56h20.878a3.555 3.555 0 0 1 3.561 3.56z" fill="#c67d1e"></path><path d="m45.472 36.559c1.842-.018 3.685-.043 5.527-.028v-3.531h-37.999v2.362q16.2 1.338 32.472 1.197z" fill="#ed313f"></path><path d="m22.968 57.119a45.479 45.479 0 0 0 -9.968-1.377v3.258a4 4 0 0 0 4 4h30a4 4 0 0 0 3.922-3.228c-9.276.809-18.78-.729-27.954-2.653z" fill="#5e101f"></path><path d="m51 48.038c-12.667-.054-25.391 1.126-38 .73v6.974a45.479 45.479 0 0 1 9.967 1.377c9.174 1.924 18.678 3.462 27.953 2.653a4 4 0 0 0 .08-.772z" fill="#701326"></path><path d="m51 43.76v-7.229c-1.842-.015-3.685.01-5.527.028q-16.253.151-32.473-1.197v7.921c12.678-.058 25.512 1.988 38 .477z" fill="#b3173d"></path><path d="m51 48.038v-4.278c-12.487 1.511-25.321-.535-38-.477v5.485c12.608.396 25.332-.784 38-.73z" fill="#80162c"></path><path d="m38.26 14.42a2.121 2.121 0 0 1 -.75-.04l-3.51-1.38v-4l3.51-1.38a2.023 2.023 0 0 1 2.42 1.4 2.347 2.347 0 0 1 .07.54v2.88a2.347 2.347 0 0 1 -.07.54 2.02 2.02 0 0 1 -1.67 1.44z" fill="#f7f3eb"></path><path d="m39.7 16.72a1.017 1.017 0 0 1 -1.17 1.63l-.53-.35.38 2.85a1.016 1.016 0 0 1 -1.36 1.09.962.962 0 0 1 -.52-.48l-4.5-8.46h2l3.51 1.38a2.121 2.121 0 0 0 .75.04z" fill="#b3173d"></path><path d="m37.02 21.94-.02.06v.02a5 5 0 0 1 -10-.02h-.36a.949.949 0 0 0 .86-.54l4.5-8.46 4.5 8.46a.962.962 0 0 0 .52.48z" fill="#c67d1e"></path><path d="m34 9v4h-2-2v-4z" fill="#b3173d"></path><path d="m32 13-4.5 8.46a.949.949 0 0 1 -.86.54 1.006 1.006 0 0 1 -1.02-1.15l.38-2.85-.53.35a1.017 1.017 0 0 1 -1.17-1.63l1.44-2.3a2.121 2.121 0 0 0 .75-.04l3.51-1.38z" fill="#b3173d"></path><path d="m25.74 14.42a2.02 2.02 0 0 1 -1.67-1.44 2.347 2.347 0 0 1 -.07-.54v-2.88a2.347 2.347 0 0 1 .07-.54 2.023 2.023 0 0 1 2.42-1.4l3.51 1.38v4l-3.51 1.38a2.121 2.121 0 0 1 -.75.04z" fill="#f7f3eb"></path><path d="m26.64 22h.36a4.976 4.976 0 0 1 -5 5c-2.8 0-4-2.24-4-5a5.372 5.372 0 0 1 -5 5 4.325 4.325 0 0 1 -3.22-1.53 3.886 3.886 0 0 1 .3-5.02l7.13-5.73a8.435 8.435 0 0 0 1.281-1.72h5.509l.07-.02a2.02 2.02 0 0 0 1.67 1.44l-1.44 2.3a1.017 1.017 0 0 0 1.17 1.63l.53-.35-.38 2.85a1.006 1.006 0 0 0 1.02 1.15z" fill="#c67d1e"></path><path d="m45.509 13h-5.509l-.07-.02a2.347 2.347 0 0 0 .07-.54v-2.88a2.347 2.347 0 0 0 -.07-.54l.07-.02h5v2a4.183 4.183 0 0 0 .509 2z" fill="#d6cec1"></path><path d="m24 9 .07.02a2.347 2.347 0 0 0 -.07.54v2.88a2.347 2.347 0 0 0 .07.54l-.07.02h-5.509a4.183 4.183 0 0 0 .509-2v-2z" fill="#d6cec1"></path><path d="m45 9h-5l-.07.02a2.347 2.347 0 0 1 .07.54v1.44h5z" fill="#ede9e1"></path><path d="m24.07 9.02-.07-.02h-5v2h5v-1.44a2.347 2.347 0 0 1 .07-.54z" fill="#ede9e1"></path><path d="m32 13-1.064 2h2.128z" fill="#e3a76f"></path><path d="m31 55h-13l2-3-2-2 2-2-2-2 2-2-2-3h28l-2 3 2 2-2 2 2 2-2 2 2 3z" fill="#ffa14a"></path><path d="m21.561 4h20.878a3.553 3.553 0 0 1 3.27 2.153l.18-.723a3.7 3.7 0 0 0 .111-.87 3.555 3.555 0 0 0 -3.561-3.56h-20.878a3.551 3.551 0 0 0 -3.561 3.56 3.7 3.7 0 0 0 .11.87l.18.723a3.537 3.537 0 0 1 3.271-2.153z" fill="#e38f22"></path><path d="m37.51 14.38-3.51-1.38h-2l1.064 2h.936l3.51 1.38a2.121 2.121 0 0 0 .75.04 1.99 1.99 0 0 0 .983-.429l-.983-1.571a2.121 2.121 0 0 1 -.75-.04z" fill="#80162c"></path><path d="m30 13-3.51 1.38a2.121 2.121 0 0 1 -.75.04l-.983 1.571a1.99 1.99 0 0 0 .983.429 2.121 2.121 0 0 0 .75-.04l3.51-1.38h.936l1.064-2z" fill="#80162c"></path><path d="m46 22c0 2.76-1.04 5-3.85 5a5.109 5.109 0 0 1 -5.15-4.98 5 5 0 0 1 -10-.02 4.976 4.976 0 0 1 -5 5c-2.8 0-4-2.24-4-5a5.372 5.372 0 0 1 -5 5v3a5.372 5.372 0 0 0 5-5c0 2.76 1.2 5 4 5a4.976 4.976 0 0 0 5-5 5 5 0 0 0 10 .02 5.109 5.109 0 0 0 5.149 4.98c2.81 0 3.85-2.24 3.85-5a5.372 5.372 0 0 0 5 5v-3a5.372 5.372 0 0 1 -4.999-5z" fill="#cdc3b4"></path><path d="m36.84 12.99a1.3 1.3 0 0 0 1.113-.838 1.179 1.179 0 0 0 .047-.314v-1.676a1.191 1.191 0 0 0 -.047-.314 1.379 1.379 0 0 0 -1.613-.815l-2.34.8v2.328l2.34.8a1.6 1.6 0 0 0 .5.029z" fill="#ded9d0"></path><path d="m26.047 9.848a1.191 1.191 0 0 0 -.047.314v1.676a1.179 1.179 0 0 0 .047.314 1.3 1.3 0 0 0 1.113.838 1.6 1.6 0 0 0 .5-.023l2.34-.8v-2.331l-2.34-.8a1.379 1.379 0 0 0 -1.613.812z" fill="#ded9d0"></path><path d="m30 9h4v2h-4z" fill="#d43c4b"></path><path d="m54.219 22.47a4.325 4.325 0 0 1 -3.219 1.53 5.37 5.37 0 0 1 -3.942-2.119 1 1 0 0 0 -1.68.229 3.355 3.355 0 0 1 -3.229 1.89 5.219 5.219 0 0 1 -4.226-2.167 1.026 1.026 0 0 1 -.9.107l-.023.06v.02a5.109 5.109 0 0 0 5.149 4.98c2.81 0 3.85-2.24 3.85-5a5.372 5.372 0 0 0 5 5 4.325 4.325 0 0 0 3.22-1.53 3.8 3.8 0 0 0 .469-3.819 3.626 3.626 0 0 1 -.469.819z" fill="#b06f1b"></path><path d="m37.02 21.94a.962.962 0 0 1 -.52-.48l-.082-.153a4.97 4.97 0 0 1 -8.836 0l-.082.153a.949.949 0 0 1 -.86.54h.36a5 5 0 0 0 10 .02v-.02z" fill="#b06f1b"></path><path d="m26.109 21.853a4.965 4.965 0 0 1 -4.109 2.147 3.544 3.544 0 0 1 -3.355-1.961 1 1 0 0 0 -1.666-.206 5.38 5.38 0 0 1 -3.979 2.167 4.325 4.325 0 0 1 -3.22-1.53 3.626 3.626 0 0 1 -.469-.819 3.8 3.8 0 0 0 .469 3.819 4.325 4.325 0 0 0 3.22 1.53 5.372 5.372 0 0 0 5-5c0 2.76 1.2 5 4 5a4.976 4.976 0 0 0 5-5h-.36a1.066 1.066 0 0 1 -.531-.147z" fill="#b06f1b"></path><g fill="#965f17"><path d="m47.138 15-.349-.28a8.435 8.435 0 0 1 -1.28-1.72h-5.509l-.07-.02a2.02 2.02 0 0 1 -1.67 1.44l1.359 2.172a1.976 1.976 0 0 0 .311-.612 2.347 2.347 0 0 0 .07-.54v-.44z"></path><path d="m38.912 18.463a1.064 1.064 0 0 1 -.382-.113l-.53-.35.38 2.85a1.028 1.028 0 0 1 -.026.384l.176.116a1.017 1.017 0 0 0 1.17-1.63z"></path><path d="m36.5 21.46-4.5-8.46-4.5 8.46a.949.949 0 0 1 -.86.54h.36a4.981 4.981 0 0 0 .582 2.307l4.418-8.307 4.418 8.307a4.983 4.983 0 0 0 .582-2.287v-.02l.02-.06a.962.962 0 0 1 -.52-.48z"></path><path d="m25.47 18.35a1.064 1.064 0 0 1 -.382.113l-.788 1.257a1.017 1.017 0 0 0 1.17 1.63l.174-.115a1.057 1.057 0 0 1 -.024-.385l.38-2.85z"></path><path d="m24.07 15.98a1.976 1.976 0 0 0 .311.612l1.359-2.172a2.02 2.02 0 0 1 -1.67-1.44l-.07.02h-5.509a8.435 8.435 0 0 1 -1.28 1.72l-.349.28h7.138v.44a2.347 2.347 0 0 0 .07.54z"></path></g><path d="m48.379 37.2a6.174 6.174 0 0 0 -4.679-3.18 6.263 6.263 0 0 0 -3.046.612 2.474 2.474 0 0 0 -1.654 1.822 1.917 1.917 0 0 0 .536 1.37 5.958 5.958 0 0 0 1.193.955l3.182 2.129a4.445 4.445 0 0 0 2.995 1.065 2.572 2.572 0 0 0 2.009-1.96 3.888 3.888 0 0 0 -.536-2.813z" fill="#ff4f5c"></path><path d="m18.312 57.189 1.517.322c.54.114 1.081.228 1.63.289a4.033 4.033 0 0 1 1.845.6 1.686 1.686 0 0 1 .62.638c.259.537-.188 1.26-.653 1.57a2.262 2.262 0 0 1 -.981.3 6.292 6.292 0 0 1 -2.477-.068 10.963 10.963 0 0 1 -2.4-.894 3.191 3.191 0 0 1 -.78-.591 2.221 2.221 0 0 1 -.526-1c-.039-.167-.053-.339-.091-.5a.513.513 0 0 1 .14-.494 1.641 1.641 0 0 1 1.525-.311z" fill="#ff4f5c"></path><path d="m42.993 34.55a3.071 3.071 0 0 0 -.367.091.712.712 0 0 0 -.368 1.258 4.381 4.381 0 0 0 3.062 1.6.712.712 0 0 0 .516-.147.761.761 0 0 0 .164-.54 2.376 2.376 0 0 0 -3.007-2.262z" fill="#fff"></path><path d="m46 38.359a1.857 1.857 0 0 0 .088.479c.135.485.171 1.238.6 1.518a.967.967 0 0 0 .646.136c.207-.026.43-.332.531-.525a1.612 1.612 0 0 0 .113-.915 1.734 1.734 0 0 0 -.961-1.49.768.768 0 0 0 -1.017.797z" fill="#fff"></path><path d="m35.217 34.053c-.6.164-1.094.572-1.691.757a4.905 4.905 0 0 1 -1.621.123l-2.15-.076a2.084 2.084 0 0 0 -.753.065 1.307 1.307 0 0 0 -.672.586 2.465 2.465 0 0 0 -.33 1.255 3.267 3.267 0 0 0 1.891 2.924 3.451 3.451 0 0 0 3.657-.484 15.113 15.113 0 0 0 .972-1.173 4.336 4.336 0 0 1 1.421-1.056 5.709 5.709 0 0 0 1.789-.938.95.95 0 0 0 .229-.364c.364-1.194-1.799-1.872-2.742-1.619z" fill="#ff4f5c"></path><path d="m46.758 55.409a7.546 7.546 0 0 1 -1.258 1.678c-.624.51-1.445.618-2.043 1.168a1.316 1.316 0 0 0 -.461.917 1.412 1.412 0 0 0 .4.926 2.679 2.679 0 0 0 1.6.865 3.871 3.871 0 0 0 1.773-.18 3.027 3.027 0 0 0 1.214-.675 4.049 4.049 0 0 0 1-2.548 2.689 2.689 0 0 0 -.065-1.021 2.8 2.8 0 0 0 -.356-.682 2.739 2.739 0 0 0 -.5-.627.841.841 0 0 0 -1.304.179z" fill="#ff4f5c"></path><path d="m47.176 50.379a1.946 1.946 0 0 0 -.138.639 9.563 9.563 0 0 0 -.024 1.375 2.722 2.722 0 0 0 .219 1.173.836.836 0 0 0 .79.43c1.035-.11 1.078-1.881.89-2.715a2.058 2.058 0 0 0 -.556-1.047.729.729 0 0 0 -1.181.145z" fill="#fff"></path><path d="m47.484 55.2-.051.055c-.079.087-.155.178-.227.271a1.12 1.12 0 0 0 -.182.521 1.1 1.1 0 0 0 0 .443.692.692 0 0 0 .349.434 1.15 1.15 0 0 0 1.25-.347 1.056 1.056 0 0 0 .372-.85 1.067 1.067 0 0 0 -1.047-.727.744.744 0 0 0 -.3.066.66.66 0 0 0 -.164.134z" fill="#fff"></path><path d="m12 52h2v2h-2z"></path><path d="m50 32h-3v2h3v25a3 3 0 0 1 -3 3h-30a3 3 0 0 1 -3-3v-3h-2v3a5.006 5.006 0 0 0 5 5h30a5.006 5.006 0 0 0 5-5v-29h-2z"></path><path d="m54.656 19.767a.945.945 0 0 0 -.109-.1l-7.076-5.682a4.4 4.4 0 0 1 -1.471-2.985v-1.878l.864-3.455a4.561 4.561 0 0 0 -4.426-5.667h-20.876a4.559 4.559 0 0 0 -4.425 5.668l.863 3.454v1.878a4.4 4.4 0 0 1 -1.471 2.984l-7.076 5.682a.945.945 0 0 0 -.109.1 4.866 4.866 0 0 0 -.349 6.32 5.291 5.291 0 0 0 3.005 1.8v22.114h2v-16h27v-2h-27v-4.118a6.622 6.622 0 0 0 3.751-2.391 4.543 4.543 0 0 0 4.249 2.509 6 6 0 0 0 5-2.687 6 6 0 0 0 10.013-.019 6.194 6.194 0 0 0 5.141 2.706 4.346 4.346 0 0 0 4.123-2.472 6.347 6.347 0 0 0 4.723 2.472 5.324 5.324 0 0 0 4.005-1.913 4.866 4.866 0 0 0 -.349-6.32zm-13.656-9.767h3v1a5.014 5.014 0 0 0 .109 1h-3.109zm-19.438-8h20.876a2.563 2.563 0 0 1 2.486 3.183l-.705 2.817h-3.677a2.929 2.929 0 0 0 -3.27-1.349.879.879 0 0 0 -.123.039l-3.339 1.31h-3.62l-3.339-1.31a.879.879 0 0 0 -.123-.039 2.929 2.929 0 0 0 -3.27 1.349h-3.677l-.7-2.816a2.529 2.529 0 0 1 -.081-.622 2.565 2.565 0 0 1 2.562-2.562zm15.907 15.153a1 1 0 0 0 -.46.979l.369 2.859-3.715-6.991h.147l3.339 1.31a.879.879 0 0 0 .123.039 2.905 2.905 0 0 0 .424.052l1.152 1.846a1.934 1.934 0 0 0 .121.194l-.418-.276a1 1 0 0 0 -1.082-.012zm-10.859 3.829.381-2.85a1 1 0 0 0 -1.542-.967l-.423.279-.01-.024a1 1 0 0 0 .136-.173l1.148-1.847a2.905 2.905 0 0 0 .424-.052.879.879 0 0 0 .123-.039l3.343-1.309h.144zm2.39-8.664-2.81 1.1a1 1 0 0 1 -1.19-.98v-2.876a1 1 0 0 1 1-1 .962.962 0 0 1 .192.019l2.808 1.101zm4-.318h-2v-2h2zm6 .438a1 1 0 0 1 -1.19.982l-2.81-1.102v-2.636l2.81-1.1a.982.982 0 0 1 .8.193 1 1 0 0 1 .39.787zm-16-.438h-3.109a5.014 5.014 0 0 0 .109-1v-1h3zm-1 14c-2.61 0-3-2.506-3-4a1 1 0 0 0 -2 0 4.4 4.4 0 0 1 -4 4 3.32 3.32 0 0 1 -2.431-1.146 2.908 2.908 0 0 1 .2-3.679l7.072-5.675a.942.942 0 0 0 .108-.1 10.566 10.566 0 0 0 1.111-1.4h4.4a3 3 0 0 0 .7.8c.038.029.08.05.118.077l-.766 1.228a2.033 2.033 0 0 0 1.288 3.352l-.17 1.27a1.99 1.99 0 0 0 1.28 2.132 3.947 3.947 0 0 1 -3.91 3.141zm10 0a3.94 3.94 0 0 1 -3.961-3.6 2.049 2.049 0 0 0 .349-.472l3.612-6.797 3.612 6.8a2.049 2.049 0 0 0 .349.472 3.94 3.94 0 0 1 -3.961 3.597zm21.431-1.146a3.32 3.32 0 0 1 -2.431 1.146 4.4 4.4 0 0 1 -4-4 1 1 0 0 0 -2 0c0 2.654-.957 4-2.846 4a4.124 4.124 0 0 1 -4.054-3.145 1.992 1.992 0 0 0 1.271-2.138l-.169-1.26a2.033 2.033 0 0 0 1.292-3.349l-.766-1.228c.038-.027.08-.048.118-.077a3 3 0 0 0 .7-.8h4.4a10.566 10.566 0 0 0 1.105 1.397.942.942 0 0 0 .108.1l7.073 5.679a2.908 2.908 0 0 1 .199 3.675z"></path><path d="m43 32h2v2h-2z"></path><path d="m17.293 50.707 1.42 1.42-1.545 2.318a1 1 0 0 0 .832 1.555h28a1 1 0 0 0 .832-1.555l-1.545-2.318 1.42-1.42a1 1 0 0 0 0-1.414l-1.293-1.293 1.293-1.293a1 1 0 0 0 0-1.414l-1.42-1.42 1.545-2.318a1 1 0 0 0 -.832-1.555h-28a1 1 0 0 0 -.832 1.555l1.545 2.318-1.42 1.42a1 1 0 0 0 0 1.414l1.293 1.293-1.293 1.293a1 1 0 0 0 0 1.414zm3.414-3.414-1.293-1.293 1.293-1.293a1 1 0 0 0 .125-1.262l-.964-1.445h24.264l-.964 1.445a1 1 0 0 0 .125 1.262l1.293 1.293-1.293 1.293a1 1 0 0 0 0 1.414l1.293 1.293-1.293 1.293a1 1 0 0 0 -.125 1.262l.964 1.445h-24.264l.964-1.445a1 1 0 0 0 -.125-1.262l-1.293-1.293 1.293-1.293a1 1 0 0 0 0-1.414z"></path><path d="m27 49v-4h-2v4a1 1 0 0 1 -1 1h-2v2h2a3 3 0 0 0 3-3z"></path><path d="m30 51h2v1h2v-4a3 3 0 0 0 -6 0v4h2zm1-4a1 1 0 0 1 1 1v1h-2v-1a1 1 0 0 1 1-1z"></path><path d="m37 50.236.1.211a1.042 1.042 0 0 0 1.79 0l.1-.211v1.764h2v-6a1 1 0 0 0 -1.9-.447l-1.09 2.211-1.1-2.211a1 1 0 0 0 -1.9.447v6h2z"></path></g></svg>